<svg id="Layer_1" data-name="Layer 1" xmlns="http://www.w3.org/2000/svg" viewBox="0 0 757.38 89.32"><defs><style>.cls-1{fill:#e6a063;}</style></defs><title>logo1-color</title><path d="M161.11,81.71a19,19,0,0,1-7.64-4.56l2-4a19.24,19.24,0,0,0,7,4.26,25.57,25.57,0,0,0,9,1.62q6.5,0,9.75-2.38a7.37,7.37,0,0,0,3.25-6.19,6.2,6.2,0,0,0-1.77-4.64,11.81,11.81,0,0,0-4.32-2.66,70.83,70.83,0,0,0-7.12-2,74.69,74.69,0,0,1-8.71-2.66A14.23,14.23,0,0,1,157,54.6a10.4,10.4,0,0,1-2.32-7.12,12.07,12.07,0,0,1,1.94-6.67A13.22,13.22,0,0,1,162.53,36a24.3,24.3,0,0,1,10-1.8,29.33,29.33,0,0,1,8.12,1.14,23.57,23.57,0,0,1,6.88,3.15l-1.73,4.08a23.71,23.71,0,0,0-6.5-3,24.51,24.51,0,0,0-6.77-1q-6.37,0-9.58,2.45a7.62,7.62,0,0,0-3.22,6.33A6.3,6.3,0,0,0,161.46,52a11.57,11.57,0,0,0,4.42,2.7c1.78.62,4.16,1.3,7.16,2a71.53,71.53,0,0,1,8.61,2.59,14,14,0,0,1,5.56,3.87,10.26,10.26,0,0,1,2.29,7,11.93,11.93,0,0,1-2,6.67,13.24,13.24,0,0,1-6.06,4.77,25.17,25.17,0,0,1-10,1.77A31.17,31.17,0,0,1,161.11,81.71Z" transform="translate(-25.62 -14.16)"/><path d="M277.45,34.62,261.13,83h-5.39L241.57,41.74,227.32,83H222l-16.31-48.4h5.25l14,41.63,14.45-41.63h4.77l14.25,41.83,14.17-41.83Z" transform="translate(-25.62 -14.16)"/><path d="M297.16,34.62h5.12V83h-5.12Z" transform="translate(-25.62 -14.16)"/><path d="M331.42,81.71a19,19,0,0,1-7.64-4.56l2-4a19.19,19.19,0,0,0,7,4.26,25.61,25.61,0,0,0,9,1.62q6.5,0,9.75-2.38a7.35,7.35,0,0,0,3.25-6.19A6.23,6.23,0,0,0,353,65.87a12,12,0,0,0-4.32-2.66,71.15,71.15,0,0,0-7.13-2,75.3,75.3,0,0,1-8.71-2.66,14.23,14.23,0,0,1-5.57-3.91A10.39,10.39,0,0,1,325,47.48a12.06,12.06,0,0,1,1.93-6.67A13.27,13.27,0,0,1,332.84,36a24.3,24.3,0,0,1,10-1.8,29.33,29.33,0,0,1,8.12,1.14,23.45,23.45,0,0,1,6.88,3.15l-1.73,4.08a23.65,23.65,0,0,0-6.49-3,24.63,24.63,0,0,0-6.78-1q-6.36,0-9.58,2.45A7.63,7.63,0,0,0,330,47.34,6.3,6.3,0,0,0,331.77,52a11.57,11.57,0,0,0,4.42,2.7c1.78.62,4.16,1.3,7.16,2A71.53,71.53,0,0,1,352,59.34a14.08,14.08,0,0,1,5.57,3.87,10.26,10.26,0,0,1,2.28,7,11.93,11.93,0,0,1-2,6.67,13.21,13.21,0,0,1-6,4.77,25.22,25.22,0,0,1-10,1.77A31.21,31.21,0,0,1,331.42,81.71Z" transform="translate(-25.62 -14.16)"/><path d="M384.32,81.71a19,19,0,0,1-7.64-4.56l2-4a19.19,19.19,0,0,0,7,4.26,25.57,25.57,0,0,0,9,1.62q6.49,0,9.75-2.38a7.35,7.35,0,0,0,3.25-6.19,6.23,6.23,0,0,0-1.76-4.64,12,12,0,0,0-4.32-2.66,71.15,71.15,0,0,0-7.13-2,75.3,75.3,0,0,1-8.71-2.66,14.23,14.23,0,0,1-5.57-3.91,10.39,10.39,0,0,1-2.31-7.12,12.06,12.06,0,0,1,1.93-6.67A13.27,13.27,0,0,1,385.74,36a24.3,24.3,0,0,1,10-1.8,29.33,29.33,0,0,1,8.12,1.14,23.45,23.45,0,0,1,6.88,3.15L409,42.57a23.71,23.71,0,0,0-6.5-3,24.51,24.51,0,0,0-6.77-1q-6.36,0-9.58,2.45a7.64,7.64,0,0,0-3.22,6.33A6.3,6.3,0,0,0,384.67,52a11.57,11.57,0,0,0,4.42,2.7c1.78.62,4.16,1.3,7.16,2a71.53,71.53,0,0,1,8.61,2.59,14.15,14.15,0,0,1,5.57,3.87,10.26,10.26,0,0,1,2.28,7,11.93,11.93,0,0,1-2,6.67,13.21,13.21,0,0,1-6.05,4.77,25.22,25.22,0,0,1-10,1.77A31.17,31.17,0,0,1,384.32,81.71Z" transform="translate(-25.62 -14.16)"/><path d="M503.15,34.62V83h-5V60.69H467.82V83H462.7V34.62h5.12V56.19h30.29V34.62Z" transform="translate(-25.62 -14.16)"/><path d="M563.52,78.6V83H529.29V34.62h33.19V39H534.41V56.26h25v4.36h-25v18Z" transform="translate(-25.62 -14.16)"/><path d="M616.28,70.09h-27L583.5,83h-5.32l22.13-48.4h5L627.48,83h-5.39Zm-1.87-4.15-11.61-26-11.62,26Z" transform="translate(-25.62 -14.16)"/><path d="M645.88,34.62H651v44H678.1V83H645.88Z" transform="translate(-25.62 -14.16)"/><path d="M701.89,39h-17V34.62H724V39H707V83h-5.11Z" transform="translate(-25.62 -14.16)"/><path d="M783,34.62V83h-5V60.69H747.67V83h-5.12V34.62h5.12V56.19H778V34.62Z" transform="translate(-25.62 -14.16)"/><path class="cls-1" d="M70.28,14.16a44.66,44.66,0,1,0,44.66,44.66A44.71,44.71,0,0,0,70.28,14.16Zm40.66,44.66A40.43,40.43,0,0,1,103.63,82V35.6A40.43,40.43,0,0,1,110.94,58.82ZM70.28,99.48A40.69,40.69,0,0,1,34.06,77.25a19.3,19.3,0,0,0,7,4A30.59,30.59,0,0,0,51.24,83a24.87,24.87,0,0,0,9.84-1.73A13.07,13.07,0,0,0,67,76.56,11.67,11.67,0,0,0,69,70a10.08,10.08,0,0,0-2.24-6.89,13.9,13.9,0,0,0-5.46-3.8,70.58,70.58,0,0,0-8.45-2.54q-4.41-1.09-7-2a11.37,11.37,0,0,1-4.35-2.64,6.21,6.21,0,0,1-1.73-4.58,7.46,7.46,0,0,1,3.16-6.21q3.15-2.41,9.4-2.41a24.07,24.07,0,0,1,6.65,1,23.22,23.22,0,0,1,6.37,3l1.7-4a22.79,22.79,0,0,0-6.75-3.08,28.63,28.63,0,0,0-8-1.12,23.86,23.86,0,0,0-9.78,1.76,13.05,13.05,0,0,0-5.83,4.72,11.79,11.79,0,0,0-1.9,6.54,10.22,10.22,0,0,0,2.27,7,14.15,14.15,0,0,0,5.46,3.84A76.45,76.45,0,0,0,51,61.13a67.29,67.29,0,0,1,7,2,11.59,11.59,0,0,1,4.24,2.61A6.06,6.06,0,0,1,64,70.29a7.19,7.19,0,0,1-3.19,6.07q-3.18,2.34-9.56,2.34a25.1,25.1,0,0,1-8.82-1.59,19,19,0,0,1-6.86-4.18l-1.85,3.64a40.64,40.64,0,0,1,69.55-41.5H98.68V56.24H74V35.07H69v47.5h5V60.65H98.68V82.57h4.58A40.64,40.64,0,0,1,70.28,99.48Z" transform="translate(-25.62 -14.16)"/></svg>