<svg width="272" height="32" viewBox="0 0 272 32" fill="none" xmlns="http://www.w3.org/2000/svg">
<g clip-path="url(#clip0_755_614)">
<path d="M48.541 24.2006C47.5121 23.8803 46.574 23.3204 45.8038 22.5669L46.5204 21.1339C47.237 21.8168 48.0924 22.3373 49.0282 22.6601C50.0594 23.0457 51.1516 23.2423 52.2526 23.2404C53.805 23.2404 54.9694 22.9562 55.7456 22.3878C56.1081 22.1434 56.4043 21.8129 56.6075 21.4258C56.8107 21.0387 56.9147 20.6073 56.91 20.1701C56.9246 19.8643 56.8757 19.5588 56.7666 19.2727C56.6575 18.9866 56.4904 18.7262 56.2758 18.5078C55.8351 18.0818 55.307 17.7566 54.7282 17.5548C53.8909 17.2717 53.0395 17.0325 52.1773 16.8383C51.1188 16.5844 50.0767 16.2661 49.0569 15.8853C48.2911 15.5867 47.609 15.1073 47.0685 14.4881C46.4843 13.7705 46.188 12.8612 46.2373 11.9373C46.2298 11.0898 46.4715 10.2589 46.9324 9.54765C47.4537 8.77787 48.1901 8.17856 49.0497 7.8244C50.1851 7.35939 51.406 7.13963 52.6323 7.17953C53.6164 7.17879 54.5956 7.31627 55.5414 7.58795C56.4184 7.82893 57.2508 8.21001 58.0063 8.71648L57.3865 10.1782C56.6691 9.70413 55.8839 9.34174 55.0578 9.1034C54.27 8.87114 53.4536 8.75055 52.6323 8.74514C51.1109 8.74514 49.9668 9.03772 49.2002 9.62288C48.8382 9.87882 48.544 10.219 48.343 10.6142C48.142 11.0093 48.0403 11.4474 48.0466 11.8907C48.0317 12.1959 48.079 12.5009 48.1856 12.7872C48.2921 13.0736 48.4557 13.3353 48.6664 13.5566C49.1143 13.9946 49.6557 14.3253 50.2499 14.5239C50.8876 14.746 51.7402 14.9897 52.815 15.2404C53.8617 15.4847 54.8919 15.7947 55.8997 16.1683C56.6671 16.4605 57.3511 16.9366 57.8916 17.5548C58.466 18.2604 58.7584 19.154 58.712 20.0627C58.7161 20.9127 58.4667 21.7447 57.9955 22.4523C57.4574 23.2247 56.7017 23.8196 55.8244 24.1612C54.6857 24.6138 53.4667 24.8295 52.2418 24.7953C50.9835 24.807 49.7323 24.6059 48.541 24.2006Z" fill="white"/>
<path d="M90.2212 7.33004L84.3744 24.6628H82.4434L77.3668 9.88087L72.2615 24.6628H70.3556L64.5123 7.32288H66.3932L71.4089 22.2373L76.5858 7.32288H78.2947L83.3999 22.309L88.4765 7.32288L90.2212 7.33004Z" fill="white"/>
<path d="M97.2826 7.33008H99.1169V24.6628H97.2826V7.33008Z" fill="white"/>
<path d="M109.557 24.2006C108.528 23.8803 107.59 23.3204 106.82 22.5669L107.536 21.1339C108.252 21.8172 109.108 22.3378 110.044 22.6601C111.075 23.0454 112.167 23.242 113.268 23.2404C114.821 23.2404 115.985 22.9562 116.761 22.3878C117.124 22.1439 117.421 21.8134 117.624 21.4263C117.827 21.0391 117.931 20.6074 117.926 20.1701C117.937 19.8671 117.886 19.565 117.776 19.2823C117.667 18.9995 117.5 18.7421 117.288 18.5257C116.846 18.1014 116.318 17.7765 115.74 17.5727C114.902 17.2897 114.049 17.0505 113.186 16.8562C112.127 16.6018 111.085 16.2835 110.065 15.9032C109.297 15.6046 108.612 15.1239 108.07 14.5024C107.488 13.7787 107.198 12.8638 107.257 11.9373C107.248 11.0902 107.488 10.2592 107.948 9.54765C108.47 8.77859 109.206 8.17947 110.065 7.8244C111.201 7.35939 112.422 7.13963 113.648 7.17953C114.632 7.17879 115.611 7.31627 116.557 7.58795C117.434 7.82821 118.267 8.20935 119.022 8.71648L118.402 10.1782C117.686 9.70416 116.902 9.34176 116.077 9.1034C115.288 8.87137 114.47 8.75078 113.648 8.74514C112.129 8.74514 110.985 9.03772 110.216 9.62288C109.852 9.8771 109.556 10.2161 109.352 10.6106C109.149 11.0051 109.044 11.4432 109.048 11.8871C109.035 12.1939 109.084 12.5002 109.193 12.7872C109.302 13.0743 109.468 13.3361 109.682 13.5566C110.13 13.9946 110.671 14.3253 111.266 14.5239C111.903 14.746 112.756 14.9897 113.831 15.2404C114.883 15.49 115.918 15.8059 116.93 16.1862C117.698 16.4789 118.383 16.9549 118.925 17.5727C119.498 18.2788 119.789 19.1723 119.742 20.0806C119.746 20.9306 119.497 21.7626 119.026 22.4702C118.494 23.2397 117.746 23.8344 116.876 24.1791C115.737 24.6312 114.518 24.8469 113.293 24.8132C112.022 24.8229 110.758 24.6157 109.557 24.2006V24.2006Z" fill="white"/>
<path d="M128.509 24.2006C127.48 23.8803 126.542 23.3204 125.772 22.5669L126.488 21.1339C127.204 21.8172 128.06 22.3378 128.996 22.6601C130.027 23.0457 131.119 23.2423 132.22 23.2404C133.77 23.2404 134.935 22.9562 135.713 22.3878C136.076 22.1439 136.373 21.8134 136.576 21.4263C136.779 21.0391 136.883 20.6074 136.878 20.1701C136.892 19.8646 136.844 19.5594 136.735 19.2735C136.627 18.9875 136.461 18.7269 136.247 18.5078C135.805 18.0835 135.277 17.7585 134.7 17.5548C133.861 17.2718 133.008 17.0326 132.145 16.8383C131.087 16.5839 130.045 16.2656 129.025 15.8853C128.256 15.5866 127.571 15.106 127.029 14.4845C126.446 13.7666 126.151 12.8572 126.202 11.9337C126.193 11.0866 126.433 10.2556 126.893 9.54406C127.418 8.77524 128.156 8.17731 129.017 7.8244C130.153 7.35939 131.374 7.13963 132.6 7.17953C133.584 7.17879 134.563 7.31627 135.509 7.58795C136.386 7.82821 137.219 8.20935 137.974 8.71648L137.351 10.1782C136.633 9.70413 135.848 9.34174 135.022 9.1034C134.234 8.87114 133.418 8.75055 132.597 8.74514C131.077 8.74514 129.933 9.03772 129.164 9.62288C128.803 9.87925 128.509 10.2196 128.308 10.6146C128.107 11.0096 128.005 11.4475 128.011 11.8907C127.996 12.1961 128.044 12.5013 128.151 12.7876C128.259 13.074 128.423 13.3356 128.634 13.5566C129.082 13.9946 129.623 14.3253 130.218 14.5239C130.855 14.746 131.708 14.9897 132.783 15.2404C133.829 15.4847 134.86 15.7947 135.867 16.1683C136.635 16.4619 137.32 16.9377 137.863 17.5548C138.436 18.2609 138.727 19.1544 138.68 20.0626C138.684 20.9127 138.434 21.7447 137.963 22.4523C137.427 23.2246 136.672 23.8195 135.796 24.1612C134.657 24.6133 133.438 24.829 132.213 24.7953C130.954 24.8074 129.701 24.6063 128.509 24.2006V24.2006Z" fill="white"/>
<path d="M171.081 7.33008V24.6628H169.29V16.67H158.424V24.6628H156.589V7.33008H158.424V15.0578H169.275V7.33008H171.081Z" fill="white"/>
<path d="M192.709 23.0865V24.6628H180.446V7.33008H192.337V8.89927H182.28V15.0829H191.237V16.6449H182.28V23.0936L192.709 23.0865Z" fill="white"/>
<path d="M211.611 20.0376H201.938L199.867 24.6628H197.961L205.89 7.32288H207.681L215.624 24.6628H213.693L211.611 20.0376ZM210.941 18.5508L206.782 9.236L202.619 18.5508H210.941Z" fill="white"/>
<path d="M222.216 7.33008H224.05V23.0936H233.759V24.6628H222.216V7.33008Z" fill="white"/>
<path d="M242.282 8.89927H236.192V7.33008H250.203V8.89927H244.113V24.6628H242.282V8.89927Z" fill="white"/>
<path d="M271.341 7.33008V24.6628H269.55V16.67H258.683V24.6628H256.849V7.33008H258.683V15.0578H269.55V7.33008H271.341Z" fill="white"/>
<path d="M16 0C12.8355 0 9.74207 0.938384 7.11088 2.69649C4.4797 4.45459 2.42894 6.95345 1.21793 9.87707C0.00693299 12.8007 -0.309921 16.0177 0.307442 19.1214C0.924806 22.2251 2.44866 25.0761 4.6863 27.3137C6.92394 29.5514 9.77486 31.0752 12.8786 31.6926C15.9823 32.3099 19.1993 31.9931 22.1229 30.7821C25.0466 29.5711 27.5454 27.5203 29.3035 24.8891C31.0616 22.2579 32 19.1645 32 16C31.9953 11.758 30.308 7.69108 27.3085 4.69153C24.3089 1.69197 20.242 0.00474127 16 0V0ZM30.567 16C30.5664 18.9713 29.6521 21.8705 27.9481 24.3045V7.68115C29.6549 10.1192 30.5694 13.0238 30.567 16V16ZM16 30.567C13.3132 30.5642 10.6794 29.819 8.38952 28.4135C6.09962 27.0081 4.24267 24.9972 3.02374 22.6028C3.74948 23.2517 4.60407 23.74 5.53158 24.0358C6.70295 24.45 7.93624 24.662 9.17869 24.6628C10.3836 24.6968 11.5829 24.4859 12.704 24.043C13.5618 23.7019 14.2997 23.1148 14.8249 22.3556C15.2937 21.6616 15.5434 20.8429 15.5414 20.0054C15.5891 19.1115 15.3031 18.2319 14.7389 17.5369C14.2067 16.9315 13.5354 16.4643 12.7828 16.1755C11.7937 15.8094 10.7826 15.5055 9.75549 15.2656C8.7022 15.0052 7.86625 14.7664 7.24765 14.549C6.66339 14.3555 6.13057 14.0322 5.68921 13.6032C5.48011 13.386 5.31734 13.1285 5.21079 12.8465C5.10425 12.5644 5.05615 12.2636 5.06942 11.9624C5.06281 11.5274 5.16248 11.0974 5.35977 10.7097C5.55706 10.322 5.84601 9.98827 6.20153 9.73757C6.95388 9.16196 8.07644 8.87416 9.56919 8.87416C10.3762 8.88151 11.1782 9.00211 11.9516 9.23242C12.7626 9.4726 13.5321 9.83502 14.2338 10.3072L14.8428 8.87416C14.1024 8.37672 13.2855 8.00396 12.4245 7.77071C11.4929 7.50218 10.528 7.36708 9.55845 7.36946C8.3592 7.33141 7.16538 7.54625 6.05464 8C5.20793 8.34711 4.4817 8.93507 3.96597 9.691C3.51353 10.388 3.27675 11.2031 3.28527 12.034C3.23555 12.942 3.52545 13.8359 4.09853 14.5419C4.63152 15.1499 5.30222 15.6216 6.05464 15.9176C7.0489 16.2794 8.06329 16.5832 9.09271 16.8276C9.94097 17.021 10.7781 17.2602 11.6005 17.5441C12.1686 17.7421 12.6869 18.0611 13.1196 18.4792C13.3319 18.6924 13.4976 18.9474 13.6061 19.228C13.7147 19.5086 13.7637 19.8087 13.7501 20.1093C13.7558 20.5382 13.6542 20.9618 13.4546 21.3416C13.2551 21.7214 12.9638 22.0453 12.6073 22.2839C11.8477 22.8428 10.7061 23.1223 9.18227 23.1223C8.10334 23.1235 7.03299 22.9305 6.0224 22.5526C5.1058 22.2343 4.26785 21.7237 3.56472 21.0551L2.90193 22.3592C1.30312 19.0791 0.994189 15.3184 2.03632 11.8214C3.07845 8.32444 5.39566 5.34626 8.52916 3.47653C11.6627 1.60679 15.384 0.981803 18.9564 1.72531C22.5288 2.46882 25.6917 4.52661 27.8191 7.49127H26.1747V15.0757H17.3327V7.49127H15.5414V24.5087H17.3327V16.6556H26.1747V24.5087H27.8155C26.4674 26.383 24.693 27.9098 22.6386 28.9632C20.5842 30.0165 18.3087 30.5662 16 30.567V30.567Z" fill="#E6A063"/>
</g>
<defs>
<clipPath id="clip0_755_614">
<rect width="271.341" height="32" fill="white"/>
</clipPath>
</defs>
</svg>
