<svg xmlns="http://www.w3.org/2000/svg" xmlns:xlink="http://www.w3.org/1999/xlink">
<defs>

<symbol id="phone" viewBox="0 0 18 18" fill="none" xmlns="http://www.w3.org/2000/svg">
<path d="M1.05 18C0.883334 18 0.708333 17.996 0.525 17.988C0.341667 17.9793 0.166667 17.9667 0 17.95V12.1L5 11.1L7.9 14C9.16667 13.2333 10.3293 12.325 11.388 11.275C12.446 10.225 13.325 9.1 14.025 7.9L11.175 5.025L12.1 0H17.95C17.9833 0.166667 18 0.341667 18 0.525V1.05C18 3.2 17.5207 5.29567 16.562 7.337C15.604 9.379 14.3373 11.1917 12.762 12.775C11.1873 14.3583 9.37933 15.625 7.338 16.575C5.296 17.525 3.2 18 1.05 18Z" fill="currentColor"/>
</symbol>

<symbol id="facebook" viewBox="0 0 24 24" fill="none" xmlns="http://www.w3.org/2000/svg">
<g clip-path="url(#clip0_701_618)">
<path d="M24.0001 12.0735C24.0001 5.40454 18.6271 -0.00146484 12.0001 -0.00146484C5.37007 3.51563e-05 -0.00292969 5.40454 -0.00292969 12.075C-0.00292969 18.1005 4.38607 23.0955 10.1221 24.0015V15.564H7.07707V12.075H10.1251V9.41254C10.1251 6.38704 11.9176 4.71604 14.6581 4.71604C15.9721 4.71604 17.3446 4.95154 17.3446 4.95154V7.92154H15.8311C14.3416 7.92154 13.8766 8.85304 13.8766 9.80854V12.0735H17.2036L16.6726 15.5625H13.8751V24C19.6111 23.094 24.0001 18.099 24.0001 12.0735Z" fill="currentColor"/>
</g>
<defs>
<clipPath id="clip0_701_618">
<rect width="24" height="24" fill="white"/>
</clipPath>
</defs>
</symbol>

<symbol id="instagram" viewBox="0 0 24 24" fill="none" xmlns="http://www.w3.org/2000/svg">
<path d="M12 0C8.7435 0 8.334 0.015 7.0545 0.072C5.775 0.132 4.9035 0.333 4.14 0.63C3.33914 0.931229 2.61374 1.40374 2.0145 2.0145C1.40411 2.61404 0.931661 3.33936 0.63 4.14C0.333 4.902 0.1305 5.775 0.072 7.05C0.015 8.3325 0 8.7405 0 12.0015C0 15.2595 0.015 15.6675 0.072 16.947C0.132 18.225 0.333 19.0965 0.63 19.86C0.9375 20.649 1.347 21.318 2.0145 21.9855C2.6805 22.653 3.3495 23.064 4.1385 23.37C4.9035 23.667 5.7735 23.8695 7.0515 23.928C8.3325 23.985 8.7405 24 12 24C15.2595 24 15.666 23.985 16.947 23.928C18.2235 23.868 19.098 23.667 19.8615 23.37C20.6618 23.0686 21.3867 22.5961 21.9855 21.9855C22.653 21.318 23.0625 20.649 23.37 19.86C23.6655 19.0965 23.868 18.225 23.928 16.947C23.985 15.6675 24 15.2595 24 12C24 8.7405 23.985 8.3325 23.928 7.0515C23.868 5.775 23.6655 4.902 23.37 4.14C23.0684 3.33934 22.5959 2.61401 21.9855 2.0145C21.3864 1.40351 20.661 0.930968 19.86 0.63C19.095 0.333 18.222 0.1305 16.9455 0.072C15.6645 0.015 15.258 0 11.997 0H12.0015H12ZM10.9245 2.163H12.0015C15.2055 2.163 15.585 2.1735 16.8495 2.232C18.0195 2.2845 18.6555 2.481 19.0785 2.6445C19.638 2.862 20.0385 3.123 20.4585 3.543C20.8785 3.963 21.138 4.362 21.3555 4.923C21.5205 5.3445 21.7155 5.9805 21.768 7.1505C21.8265 8.415 21.8385 8.7945 21.8385 11.997C21.8385 15.1995 21.8265 15.5805 21.768 16.845C21.7155 18.015 21.519 18.6495 21.3555 19.0725C21.1631 19.5935 20.856 20.0647 20.457 20.451C20.037 20.871 19.638 21.1305 19.077 21.348C18.657 21.513 18.021 21.708 16.8495 21.762C15.585 21.819 15.2055 21.8325 12.0015 21.8325C8.7975 21.8325 8.4165 21.819 7.152 21.762C5.982 21.708 5.3475 21.513 4.9245 21.348C4.40325 21.1559 3.93169 20.8494 3.5445 20.451C3.14513 20.064 2.83758 19.5925 2.6445 19.071C2.481 18.6495 2.2845 18.0135 2.232 16.8435C2.175 15.579 2.163 15.1995 2.163 11.994C2.163 8.79 2.175 8.412 2.232 7.1475C2.286 5.9775 2.481 5.3415 2.646 4.9185C2.8635 4.359 3.1245 3.9585 3.5445 3.5385C3.9645 3.1185 4.3635 2.859 4.9245 2.6415C5.3475 2.4765 5.982 2.2815 7.152 2.2275C8.259 2.1765 8.688 2.1615 10.9245 2.16V2.163V2.163ZM18.4065 4.155C18.2174 4.155 18.0301 4.19225 17.8554 4.26461C17.6807 4.33698 17.522 4.44305 17.3883 4.57677C17.2545 4.71048 17.1485 4.86923 17.0761 5.04394C17.0037 5.21864 16.9665 5.4059 16.9665 5.595C16.9665 5.7841 17.0037 5.97135 17.0761 6.14606C17.1485 6.32077 17.2545 6.47952 17.3883 6.61323C17.522 6.74695 17.6807 6.85302 17.8554 6.92539C18.0301 6.99775 18.2174 7.035 18.4065 7.035C18.7884 7.035 19.1547 6.88329 19.4247 6.61323C19.6948 6.34318 19.8465 5.97691 19.8465 5.595C19.8465 5.21309 19.6948 4.84682 19.4247 4.57677C19.1547 4.30671 18.7884 4.155 18.4065 4.155V4.155ZM12.0015 5.838C11.1841 5.82525 10.3723 5.97523 9.61347 6.27921C8.85459 6.58319 8.16377 7.03511 7.58123 7.60864C6.99868 8.18216 6.53605 8.86585 6.22026 9.61989C5.90448 10.3739 5.74185 11.1833 5.74185 12.0007C5.74185 12.8182 5.90448 13.6276 6.22026 14.3816C6.53605 15.1356 6.99868 15.8193 7.58123 16.3929C8.16377 16.9664 8.85459 17.4183 9.61347 17.7223C10.3723 18.0263 11.1841 18.1763 12.0015 18.1635C13.6193 18.1383 15.1623 17.4779 16.2975 16.3249C17.4326 15.1719 18.0689 13.6188 18.0689 12.0007C18.0689 10.3827 17.4326 8.82962 16.2975 7.67662C15.1623 6.52363 13.6193 5.86324 12.0015 5.838V5.838ZM12.0015 7.9995C13.0625 7.9995 14.08 8.42098 14.8303 9.17122C15.5805 9.92146 16.002 10.939 16.002 12C16.002 13.061 15.5805 14.0785 14.8303 14.8288C14.08 15.579 13.0625 16.0005 12.0015 16.0005C10.9405 16.0005 9.92296 15.579 9.17272 14.8288C8.42248 14.0785 8.001 13.061 8.001 12C8.001 10.939 8.42248 9.92146 9.17272 9.17122C9.92296 8.42098 10.9405 7.9995 12.0015 7.9995V7.9995Z" fill="currentColor"/>
</symbol>

<symbol id="linkedin" viewBox="0 0 24 24" fill="none" xmlns="http://www.w3.org/2000/svg">
<path d="M0 1.719C0 0.7695 0.789 0 1.7625 0H22.2375C23.211 0 24 0.7695 24 1.719V22.281C24 23.2305 23.211 24 22.2375 24H1.7625C0.789 24 0 23.2305 0 22.281V1.719ZM7.4145 20.091V9.2535H3.813V20.091H7.4145ZM5.6145 7.773C6.87 7.773 7.6515 6.942 7.6515 5.901C7.629 4.8375 6.8715 4.029 5.6385 4.029C4.4055 4.029 3.6 4.839 3.6 5.901C3.6 6.942 4.3815 7.773 5.5905 7.773H5.6145V7.773ZM12.9765 20.091V14.0385C12.9765 13.7145 13.0005 13.3905 13.0965 13.1595C13.356 12.513 13.9485 11.8425 14.9445 11.8425C16.248 11.8425 16.7685 12.8355 16.7685 14.2935V20.091H20.37V13.875C20.37 10.545 18.594 8.997 16.224 8.997C14.313 8.997 13.4565 10.047 12.9765 10.7865V10.824H12.9525C12.9605 10.8115 12.9685 10.799 12.9765 10.7865V9.2535H9.3765C9.4215 10.2705 9.3765 20.091 9.3765 20.091H12.9765Z" fill="currentColor"/>
</symbol>

<symbol id="twitter" width="24" height="24" viewBox="0 0 24 24" fill="none" xmlns="http://www.w3.org/2000/svg">
<path d="M7.539 22.4999C16.596 22.4999 21.5505 14.9954 21.5505 8.49894C21.5505 8.28894 21.5505 8.07594 21.5415 7.86594C22.5061 7.16767 23.3386 6.30317 24 5.31294C23.099 5.71022 22.1441 5.97205 21.1665 6.08994C22.1963 5.4744 22.9676 4.50589 23.337 3.36444C22.3695 3.93763 21.3105 4.34 20.2065 4.55394C19.4643 3.76348 18.4821 3.23982 17.4121 3.06408C16.3422 2.88834 15.2441 3.07032 14.288 3.58185C13.3319 4.09337 12.5712 4.90588 12.1237 5.89353C11.6761 6.88118 11.5668 7.98884 11.8125 9.04494C9.85461 8.94677 7.93922 8.43814 6.19056 7.55206C4.4419 6.66597 2.89903 5.42221 1.662 3.90144C1.03401 4.98607 0.842361 6.26904 1.12597 7.48984C1.40958 8.71064 2.14718 9.77774 3.189 10.4744C2.40831 10.4479 1.64478 10.2383 0.96 9.86244V9.92994C0.961346 11.0662 1.35496 12.1671 2.07431 13.0466C2.79366 13.9261 3.79462 14.5303 4.908 14.7569C4.48539 14.8734 4.04884 14.9314 3.6105 14.9294C3.30148 14.9304 2.99307 14.9017 2.6895 14.8439C3.00418 15.822 3.61691 16.6772 4.44187 17.2897C5.26683 17.9021 6.2627 18.2412 7.29 18.2594C5.54483 19.6301 3.3891 20.3736 1.17 20.3699C0.778981 20.3716 0.388235 20.349 0 20.3024C2.25227 21.7383 4.86795 22.5008 7.539 22.4999V22.4999Z" fill="currentColor"/>
</symbol>

<symbol id="youtube" viewBox="0 0 24 24" fill="none" xmlns="http://www.w3.org/2000/svg">
<g clip-path="url(#clip0_701_620)">
<path d="M12.0765 2.99854H12.21C13.443 3.00304 19.6905 3.04804 21.375 3.50104C21.8842 3.63929 22.3483 3.90877 22.7207 4.28255C23.0932 4.65633 23.361 5.12131 23.4975 5.63104C23.649 6.20104 23.7555 6.95554 23.8275 7.73404L23.8425 7.89004L23.8755 8.28004L23.8875 8.43604C23.985 9.80704 23.997 11.091 23.9985 11.3715V11.484C23.997 11.775 23.9835 13.146 23.8755 14.574L23.8635 14.7315L23.85 14.8875C23.775 15.7455 23.664 16.5975 23.4975 17.2245C23.3615 17.7345 23.0938 18.1997 22.7212 18.5735C22.3487 18.9474 21.8844 19.2167 21.375 19.3545C19.635 19.8225 13.0215 19.8555 12.105 19.857H11.892C11.4285 19.857 9.5115 19.848 7.5015 19.779L7.2465 19.77L7.116 19.764L6.8595 19.7535L6.603 19.743C4.938 19.6695 3.3525 19.551 2.622 19.353C2.11273 19.2153 1.6486 18.9462 1.27609 18.5726C0.903575 18.1991 0.63577 17.7342 0.4995 17.2245C0.333 16.599 0.222 15.7455 0.147 14.8875L0.135 14.73L0.123 14.574C0.0489714 13.5576 0.0079498 12.5391 0 11.52L0 11.3355C0.003 11.013 0.015 9.89854 0.096 8.66854L0.1065 8.51404L0.111 8.43604L0.123 8.28004L0.156 7.89004L0.171 7.73404C0.243 6.95554 0.3495 6.19954 0.501 5.63104C0.63704 5.12111 0.904743 4.6559 1.27727 4.28206C1.6498 3.90822 2.11405 3.63887 2.6235 3.50104C3.354 3.30604 4.9395 3.18604 6.6045 3.11104L6.8595 3.10054L7.1175 3.09154L7.2465 3.08704L7.503 3.07654C8.93056 3.0306 10.3587 3.00509 11.787 3.00004H12.0765V2.99854ZM9.6 7.81354V15.0405L15.8355 11.4285L9.6 7.81354Z" fill="currentColor"/>
</g>
<defs>
<clipPath id="clip0_701_620">
<rect width="24" height="24" fill="white"/>
</clipPath>
</defs>
</symbol>






</defs>
</svg>